<svg version="1.1" id="Layer_1" xmlns="http://www.w3.org/2000/svg" xmlns:xlink="http://www.w3.org/1999/xlink" x="0px" y="0px"
	 width="100%" viewBox="0 0 64 59" enable-background="new 0 0 64 59" xml:space="preserve">
<path fill="#F9F9F9" opacity="1.000000" stroke="none" 
	d="
M1.000000,23.000166 
	C1.000000,15.348153 1.000000,8.196082 1.000000,1.022005 
	C22.275200,1.022005 43.550426,1.022005 64.912827,1.022005 
	C64.912827,20.568155 64.912827,40.136826 64.912827,59.852749 
	C43.667427,59.852749 22.333841,59.852749 1.000000,59.852749 
	C1.000000,47.783939 1.000000,35.642025 1.000000,23.000166 
M44.888474,56.998962 
	C50.762047,56.998962 56.635624,56.998962 61.425056,56.998962 
	C60.517582,53.515228 59.122288,50.499996 59.047443,47.452339 
	C58.773422,36.294739 58.776089,25.122532 59.037258,13.964314 
	C59.116550,10.576543 60.366932,7.216180 61.106129,3.724248 
	C60.290096,3.724248 58.304482,3.724370 56.318867,3.724228 
	C46.373268,3.723519 46.386875,3.728362 43.056942,13.035810 
	C39.774239,22.211258 36.460075,31.375452 32.799530,41.545273 
	C28.214939,29.495247 24.086304,18.524643 19.830111,7.603751 
	C19.283195,6.200435 18.154999,4.042561 17.157593,3.962648 
	C12.373981,3.579383 7.542741,3.790540 3.948651,3.790540 
	C4.986017,7.195640 6.537529,10.049861 6.616124,12.944080 
	C6.914557,23.933678 6.670742,34.936813 6.771307,45.933594 
	C6.808031,49.949245 6.804998,53.805996 1.494409,56.674309 
	C6.275930,56.674309 9.541994,56.674309 11.626368,56.674309 
	C10.751939,53.387451 9.393309,50.261585 9.182468,47.060127 
	C8.789094,41.087040 9.061691,35.070019 9.059313,29.071281 
	C9.057476,24.439373 9.058947,19.807467 9.058947,15.175558 
	C14.733842,28.042076 19.582991,40.928932 24.639954,53.733715 
	C25.167870,55.070457 26.949917,56.787598 28.106588,56.755604 
	C29.278032,56.723206 30.939373,54.941879 31.450998,53.576260 
	C35.762901,42.066994 39.857254,30.476271 44.026390,18.913416 
	C44.452351,17.732046 44.939762,16.572830 45.398659,15.403335 
	C46.230976,26.586781 46.240108,37.405491 46.224709,48.224171 
	C46.220741,51.013107 46.674931,54.029003 43.202187,55.364094 
	C43.458385,55.903027 43.714584,56.441963 44.888474,56.998962 
z"/>
<path fill="#272B2F" opacity="1.000000" stroke="none" 
	d="
M44.429626,56.989929 
	C43.714584,56.441963 43.458385,55.903027 43.202187,55.364094 
	C46.674931,54.029003 46.220741,51.013107 46.224709,48.224171 
	C46.240108,37.405491 46.230976,26.586781 45.398659,15.403335 
	C44.939762,16.572830 44.452351,17.732046 44.026390,18.913416 
	C39.857254,30.476271 35.762901,42.066994 31.450998,53.576260 
	C30.939373,54.941879 29.278032,56.723206 28.106588,56.755604 
	C26.949917,56.787598 25.167870,55.070457 24.639954,53.733715 
	C19.582991,40.928932 14.733842,28.042076 9.058947,15.175558 
	C9.058947,19.807467 9.057476,24.439373 9.059313,29.071281 
	C9.061691,35.070019 8.789094,41.087040 9.182468,47.060127 
	C9.393309,50.261585 10.751939,53.387451 11.626368,56.674309 
	C9.541994,56.674309 6.275930,56.674309 1.494409,56.674309 
	C6.804998,53.805996 6.808031,49.949245 6.771307,45.933594 
	C6.670742,34.936813 6.914557,23.933678 6.616124,12.944080 
	C6.537529,10.049861 4.986017,7.195640 3.948651,3.790540 
	C7.542741,3.790540 12.373981,3.579383 17.157593,3.962648 
	C18.154999,4.042561 19.283195,6.200435 19.830111,7.603751 
	C24.086304,18.524643 28.214939,29.495247 32.799530,41.545273 
	C36.460075,31.375452 39.774239,22.211258 43.056942,13.035810 
	C46.386875,3.728362 46.373268,3.723519 56.318867,3.724228 
	C58.304482,3.724370 60.290096,3.724248 61.106129,3.724248 
	C60.366932,7.216180 59.116550,10.576543 59.037258,13.964314 
	C58.776089,25.122532 58.773422,36.294739 59.047443,47.452339 
	C59.122288,50.499996 60.517582,53.515228 61.425056,56.998962 
	C56.635624,56.998962 50.762047,56.998962 44.429626,56.989929 
z"/>
</svg>